<?xml version="1.0" encoding="utf-8"?>
<!-- Generator: Adobe Illustrator 21.0.2, SVG Export Plug-In . SVG Version: 6.00 Build 0)  -->
<svg version="1.1" id="Layer_1" xmlns="http://www.w3.org/2000/svg" xmlns:xlink="http://www.w3.org/1999/xlink" x="0px" y="0px"
	 viewBox="0 0 24 24" style="enable-background:new 0 0 24 24;" xml:space="preserve">
<path d="M18.5,18.7L18,17c-0.2-0.8-0.6-1.8-1.5-2.5c-2.6-2-3.3-2.5-3.4-2.9c-0.1-0.3,0.2-1.1,1.4-4.2c0.4-1.1,0.2-2.1,0-2.9L14,2.9
	c-0.3-1.1-2.7-1.1-4.8-0.5c-2,0.6-4,1.8-3.7,2.9L6,7c0.2,0.8,0.6,1.8,1.5,2.5c2.6,2,3.3,2.5,3.4,2.9c0.1,0.3-0.2,1.1-1.4,4.2
	c-0.4,1.1-0.2,2.1,0,2.9l0.5,1.6c0.2,0.6,1.1,0.9,2.2,0.9c0.8,0,1.7-0.1,2.6-0.4c1.1-0.3,2.1-0.8,2.8-1.3
	C18.3,19.8,18.6,19.2,18.5,18.7z M9.4,2.8c0.9-0.3,1.8-0.4,2.5-0.4c1,0,1.6,0.2,1.7,0.6c0.2,0.6-1.2,1.7-3.5,2.4
	C7.8,6,6.1,5.8,5.9,5.2C5.8,4.6,7.1,3.5,9.4,2.8z M6.4,6.8L6.2,6c0.4,0.2,0.9,0.3,1.5,0.3c0.8,0,1.7-0.1,2.6-0.4
	c1.5-0.4,3-1.2,3.6-2l0.2,0.8c0.2,0.8,0.4,1.7,0,2.7c0,0,0,0,0,0.1c-0.7-0.4-1.8-0.5-3.7-0.3c-1.1,0-2.7,0.6-3.1,1.4
	C6.8,8.1,6.6,7.4,6.4,6.8z M9.9,16.7c1.3-3.3,1.5-4,1.4-4.4c0.1,0.1,0.3,0.2,0.4,0.3l0.6-0.1c0.2-0.4,0.3-0.9,0.5-1.2
	c0,0.2,0,0.4,0,0.5c0.1,0.4,0.5,0.8,3.5,3.1c0.8,0.6,1.1,1.5,1.4,2.3l0.5,1.6c0.1,0.2-0.1,0.4-0.3,0.7c-0.5-0.4-1-0.5-2.3-0.8
	L15,18.6c-2.1-0.5-3.1-0.7-5,0.1c-0.1,0-0.1,0.1-0.2,0.1C9.6,18.2,9.6,17.5,9.9,16.7z"/>
<path d="M12,12.8c-0.2,0-0.3-0.1-0.3-0.3s0.1-0.3,0.3-0.3s0.3,0.1,0.3,0.3v0C12.3,12.7,12.2,12.8,12,12.8z M12.3,17.7v-0.1
	c0-0.2-0.1-0.3-0.3-0.3s-0.3,0.1-0.3,0.3v0.1c0,0.2,0.1,0.3,0.3,0.3S12.3,17.9,12.3,17.7z M12.3,16.7v-0.1c0-0.2-0.1-0.3-0.3-0.3
	s-0.3,0.1-0.3,0.3v0.1c0,0.2,0.1,0.3,0.3,0.3S12.3,16.8,12.3,16.7z M12.3,15.6v-0.1c0-0.2-0.1-0.3-0.3-0.3s-0.3,0.1-0.3,0.3v0.1
	c0,0.2,0.1,0.3,0.3,0.3S12.3,15.8,12.3,15.6z M12.3,14.6v-0.1c0-0.2-0.1-0.3-0.3-0.3s-0.3,0.1-0.3,0.3v0.1c0,0.2,0.1,0.3,0.3,0.3
	S12.3,14.8,12.3,14.6z M12.3,13.6v-0.1c0-0.2-0.1-0.3-0.3-0.3s-0.3,0.1-0.3,0.3v0.1c0,0.2,0.1,0.3,0.3,0.3S12.3,13.7,12.3,13.6z"/>
</svg>
